<svg xmlns="http://www.w3.org/2000/svg" width="19.116" height="19.071" viewBox="0 0 19.116 19.071"><defs></defs><path class="a" d="M4334.478-1068.013a9.487,9.487,0,0,0-9.478,9.536v2.646a1.549,1.549,0,0,0,1.563,1.586,1.549,1.549,0,0,0,1.563-1.586v-2.646a6.316,6.316,0,0,1,6.307-6.374,6.316,6.316,0,0,1,6.307,6.374v2.646a1.6,1.6,0,0,0,1.618,1.586,1.6,1.6,0,0,0,1.619-1.586v-2.646A9.5,9.5,0,0,0,4334.478-1068.013Z" transform="translate(-4325 1068.013)"/><path class="a" d="M4342.74-1009.906a3.7,3.7,0,0,1-3.689-3.717v-2.646a4.245,4.245,0,0,0-4.242-4.232,4.245,4.245,0,0,0-4.242,4.232v2.646a3.737,3.737,0,0,1-3.736,3.717,1.578,1.578,0,0,0-1.6,1.586,1.609,1.609,0,0,0,1.632,1.586,6.937,6.937,0,0,0,6.937-6.889v-2.646a1,1,0,0,1,1-1.071,1.006,1.006,0,0,1,1,1.071v2.646a6.91,6.91,0,0,0,6.9,6.889,1.588,1.588,0,0,0,1.608-1.586A1.559,1.559,0,0,0,4342.74-1009.906Z" transform="translate(-4325.209 1025.805)"/></svg>